<!-- This is an SVG file that will be converted to PNG for og-image -->
<svg width="1200" height="630" viewBox="0 0 1200 630" fill="none" xmlns="http://www.w3.org/2000/svg">
  <!-- Background -->
  <rect width="1200" height="630" fill="#1e40af" />
  
  <!-- Decorative elements -->
  <circle cx="150" cy="150" r="300" fill="#2563eb" opacity="0.3" />
  <circle cx="1050" cy="480" r="250" fill="#0ea5e9" opacity="0.2" />
  
  <!-- Main text content -->
  <text x="600" y="250" font-family="Inter, sans-serif" font-size="64" font-weight="700" text-anchor="middle" fill="white">
    Resume Feedback Generator
  </text>
  
  <!-- Subtitle -->
  <text x="600" y="320" font-family="Inter, sans-serif" font-size="32" font-weight="400" text-anchor="middle" fill="#bfdbfe">
    Get instant, AI-powered feedback on your resume
  </text>
  
  <!-- Document icon -->
  <path d="M450 400 L450 500 L550 500 L550 400 Z" fill="white" />
  <path d="M470 430 L530 430 M470 450 L530 450 M470 470 L510 470" stroke="#1e40af" stroke-width="10" stroke-linecap="round" />
  
  <!-- Feedback icon -->
  <path d="M650 400 L650 500 L750 500 L750 400 Z" fill="white" />
  <path d="M670 430 L730 430 M670 450 L730 450 M670 470 L710 470" stroke="#1e40af" stroke-width="10" stroke-linecap="round" />
  
  <!-- Arrow -->
  <path d="M580 450 L620 450 M610 430 L630 450 L610 470" stroke="white" stroke-width="10" stroke-linecap="round" stroke-linejoin="round" />
</svg>
